<svg width="26" height="26" viewBox="0 0 26 26" fill="none" xmlns="http://www.w3.org/2000/svg">
<rect width="26" height="26" fill="#1E1E1E"/>
<g id="Landing Page" clip-path="url(#clip0_0_1)">
<rect width="1440" height="4699" transform="translate(-610 -2369)" fill="white"/>
<g id="Frame 31">
<g id="Frame 19">
<circle id="Ellipse 3" cx="13" cy="13" r="32" fill="#E8FAFA"/>
<g id="Contacts">
<path id="Vector" d="M17.1145 12.5427C18.1244 12.5427 18.9431 11.724 18.9431 10.7141C18.9431 9.70423 18.1244 8.88555 17.1145 8.88555C16.1046 8.88555 15.2859 9.70423 15.2859 10.7141C15.2859 11.724 16.1046 12.5427 17.1145 12.5427Z" fill="#23CEC9"/>
<path id="Vector_2" d="M25.8 1.57148C25.8 1.20775 25.6555 0.858924 25.3983 0.601732C25.1411 0.344539 24.7923 0.200049 24.4286 0.200049H8.42857V25.8H24.4286C24.7923 25.8 25.1411 25.6556 25.3983 25.3984C25.6555 25.1412 25.8 24.7923 25.8 24.4286V1.57148ZM17.1143 19.8572C15.7581 19.8572 14.4323 19.455 13.3047 18.7016C12.177 17.9481 11.2981 16.8771 10.7791 15.6242C10.2601 14.3712 10.1243 12.9924 10.3889 11.6623C10.6535 10.3321 11.3066 9.11031 12.2655 8.15132C13.2245 7.19233 14.4464 6.53925 15.7765 6.27466C17.1067 6.01008 18.4854 6.14587 19.7384 6.66488C20.9914 7.18388 22.0623 8.06277 22.8158 9.19042C23.5693 10.3181 23.9714 11.6438 23.9714 13C23.9694 14.818 23.2463 16.561 21.9607 17.8465C20.6752 19.132 18.9323 19.8551 17.1143 19.8572Z" fill="#23CEC9"/>
<path id="Vector_3" d="M17.1147 7.05743C15.9858 7.05624 14.88 7.37684 13.9268 7.98165C12.9735 8.58647 12.2125 9.45044 11.7327 10.4723C11.2529 11.4942 11.0744 12.6317 11.2179 13.7514C11.3615 14.8712 11.8213 15.9268 12.5433 16.7946V15.7431C12.5444 15.0012 12.803 14.2826 13.2749 13.71C13.7467 13.1375 14.4027 12.7464 15.1307 12.6035C14.7599 12.215 14.5113 11.7262 14.4157 11.1977C14.3201 10.6692 14.3817 10.1243 14.593 9.63055C14.8043 9.13679 15.1559 8.71591 15.6041 8.42013C16.0524 8.12435 16.5777 7.96669 17.1147 7.96669C17.6518 7.96669 18.177 8.12435 18.6253 8.42013C19.0736 8.71591 19.4252 9.13679 19.6364 9.63055C19.8477 10.1243 19.9094 10.6692 19.8138 11.1977C19.7182 11.7262 19.4696 12.215 19.0987 12.6035C19.8268 12.7464 20.4827 13.1375 20.9546 13.71C21.4265 14.2826 21.685 15.0012 21.6862 15.7431V16.7946C22.4082 15.9268 22.8679 14.8712 23.0115 13.7514C23.1551 12.6317 22.9765 11.4942 22.4968 10.4723C22.017 9.45044 21.2559 8.58647 20.3027 7.98165C19.3495 7.37684 18.2436 7.05624 17.1147 7.05743Z" fill="#23CEC9"/>
<path id="Vector_4" d="M18.4854 13.4568H15.7425C15.1366 13.4576 14.5556 13.6986 14.1271 14.1271C13.6986 14.5556 13.4576 15.1366 13.4568 15.7426V17.6744C14.4989 18.4958 15.7871 18.9425 17.114 18.9425C18.4408 18.9425 19.7291 18.4958 20.7711 17.6744V15.7426C20.7704 15.1366 20.5293 14.5556 20.1008 14.1271C19.6723 13.6986 19.0914 13.4576 18.4854 13.4568Z" fill="#23CEC9"/>
<path id="Vector_5" d="M4.77143 10.2569C4.77143 10.0144 4.6751 9.78183 4.50364 9.61037C4.33218 9.43891 4.09962 9.34258 3.85714 9.34258H1.11428C0.871799 9.34258 0.639247 9.43891 0.467785 9.61037C0.296323 9.78183 0.199997 10.0144 0.199997 10.2569C0.199997 10.4993 0.296323 10.7319 0.467785 10.9034C0.639247 11.0748 0.871799 11.1712 1.11428 11.1712H3.85714C4.09962 11.1712 4.33218 11.0748 4.50364 10.9034C4.6751 10.7319 4.77143 10.4993 4.77143 10.2569Z" fill="#23CEC9"/>
<path id="Vector_6" d="M2.94316 1.57143V2.94286H3.85745C4.34241 2.94286 4.80752 3.13551 5.15044 3.47843C5.49337 3.82136 5.68602 4.28646 5.68602 4.77143C5.68602 5.2564 5.49337 5.7215 5.15044 6.06442C4.80752 6.40735 4.34241 6.6 3.85745 6.6H2.94316V8.42857H3.85745C4.34241 8.42857 4.80752 8.62123 5.15044 8.96415C5.49337 9.30707 5.68602 9.77218 5.68602 10.2571C5.68602 10.7421 5.49337 11.2072 5.15044 11.5501C4.80752 11.8931 4.34241 12.0857 3.85745 12.0857H2.94316V14.3714H3.85745C4.34241 14.3714 4.80752 14.5641 5.15044 14.907C5.49337 15.2499 5.68602 15.715 5.68602 16.2C5.68602 16.685 5.49337 17.1501 5.15044 17.493C4.80752 17.8359 4.34241 18.0286 3.85745 18.0286H2.94316V19.8571H3.85745C4.34241 19.8571 4.80752 20.0498 5.15044 20.3927C5.49337 20.7356 5.68602 21.2007 5.68602 21.6857C5.68602 22.1707 5.49337 22.6358 5.15044 22.9787C4.80752 23.3216 4.34241 23.5143 3.85745 23.5143H2.94316V24.4286C2.94316 24.7923 3.08765 25.1411 3.34484 25.3983C3.60204 25.6555 3.95086 25.8 4.31459 25.8H7.51459V0.200001H4.31459C3.95086 0.200001 3.60204 0.34449 3.34484 0.601683C3.08765 0.858876 2.94316 1.2077 2.94316 1.57143Z" fill="#23CEC9"/>
<path id="Vector_7" d="M1.11428 5.68575H3.85714C4.09962 5.68575 4.33218 5.58942 4.50364 5.41796C4.6751 5.2465 4.77143 5.01395 4.77143 4.77146C4.77143 4.52898 4.6751 4.29643 4.50364 4.12497C4.33218 3.9535 4.09962 3.85718 3.85714 3.85718H1.11428C0.871799 3.85718 0.639247 3.9535 0.467785 4.12497C0.296323 4.29643 0.199997 4.52898 0.199997 4.77146C0.199997 5.01395 0.296323 5.2465 0.467785 5.41796C0.639247 5.58942 0.871799 5.68575 1.11428 5.68575Z" fill="#23CEC9"/>
<path id="Vector_8" d="M4.77143 16.2001C4.77143 15.9576 4.6751 15.725 4.50364 15.5536C4.33218 15.3821 4.09962 15.2858 3.85714 15.2858H1.11428C0.871799 15.2858 0.639247 15.3821 0.467785 15.5536C0.296323 15.725 0.199997 15.9576 0.199997 16.2001C0.199997 16.4426 0.296323 16.6751 0.467785 16.8466C0.639247 17.018 0.871799 17.1144 1.11428 17.1144H3.85714C4.09962 17.1144 4.33218 17.018 4.50364 16.8466C4.6751 16.6751 4.77143 16.4426 4.77143 16.2001Z" fill="#23CEC9"/>
<path id="Vector_9" d="M4.77143 21.6857C4.77143 21.4432 4.6751 21.2107 4.50364 21.0392C4.33218 20.8678 4.09962 20.7714 3.85714 20.7714H1.11428C0.871799 20.7714 0.639247 20.8678 0.467785 21.0392C0.296323 21.2107 0.199997 21.4432 0.199997 21.6857C0.199997 21.9282 0.296323 22.1608 0.467785 22.3322C0.639247 22.5037 0.871799 22.6 1.11428 22.6H3.85714C4.09962 22.6 4.33218 22.5037 4.50364 22.3322C4.6751 22.1608 4.77143 21.9282 4.77143 21.6857Z" fill="#23CEC9"/>
</g>
</g>
</g>
</g>
<defs>
<clipPath id="clip0_0_1">
<rect width="1440" height="4699" fill="white" transform="translate(-610 -2369)"/>
</clipPath>
</defs>
</svg>
