<svg width="64" height="64" viewBox="0 0 64 64" fill="none" xmlns="http://www.w3.org/2000/svg">
<rect width="64" height="64" fill="#1E1E1E"/>
<g id="Landing Page" clip-path="url(#clip0_0_1)">
<rect width="1440" height="4699" transform="translate(-591 -2592)" fill="white"/>
<g id="Frame 32">
<g id="Frame 23">
<circle id="Ellipse 3" cx="32" cy="32" r="32" fill="#EDE8F7"/>
<g id="hierarchy 1" clip-path="url(#clip1_0_1)">
<path id="Vector" d="M32 23.4666C33.1782 23.4666 34.1333 22.5115 34.1333 21.3333C34.1333 20.1551 33.1782 19.2 32 19.2C30.8218 19.2 29.8667 20.1551 29.8667 21.3333C29.8667 22.5115 30.8218 23.4666 32 23.4666Z" fill="#5526B3"/>
<path id="Vector_2" d="M36.2667 27.4667C36.2667 25.8486 34.9515 24.5334 33.3333 24.5334H30.6667C29.0485 24.5334 27.7333 25.8486 27.7333 27.4667V28.0001C27.7333 28.4417 28.0917 28.8 28.5333 28.8H35.4667C35.9083 28.8 36.2667 28.4417 36.2667 28.0001V27.4667Z" fill="#5526B3"/>
<path id="Vector_3" d="M23.4667 39.4667C24.6449 39.4667 25.6 38.5115 25.6 37.3333C25.6 36.1551 24.6449 35.2 23.4667 35.2C22.2885 35.2 21.3333 36.1551 21.3333 37.3333C21.3333 38.5115 22.2885 39.4667 23.4667 39.4667Z" fill="#5526B3"/>
<path id="Vector_4" d="M24.8 40.5333H22.1333C20.5152 40.5333 19.2 41.8485 19.2 43.4666V44C19.2 44.4416 19.5584 44.8 20 44.8H26.9333C27.3749 44.8 27.7333 44.4416 27.7333 44V43.4666C27.7333 41.8485 26.4181 40.5333 24.8 40.5333Z" fill="#5526B3"/>
<path id="Vector_5" d="M40.5333 39.4667C41.7115 39.4667 42.6667 38.5115 42.6667 37.3333C42.6667 36.1551 41.7115 35.2 40.5333 35.2C39.3551 35.2 38.4 36.1551 38.4 37.3333C38.4 38.5115 39.3551 39.4667 40.5333 39.4667Z" fill="#5526B3"/>
<path id="Vector_6" d="M41.8667 40.5333H39.2C37.5819 40.5333 36.2667 41.8485 36.2667 43.4666V44C36.2667 44.4416 36.6251 44.8 37.0667 44.8H44C44.4416 44.8 44.8 44.4416 44.8 44V43.4666C44.8 41.8485 43.4848 40.5333 41.8667 40.5333Z" fill="#5526B3"/>
<path id="Vector_7" d="M40.5333 34.1333C40.0917 34.1333 39.7333 33.7749 39.7333 33.3333V33.0667H24.2667V33.3333C24.2667 33.7749 23.9083 34.1333 23.4667 34.1333C23.0251 34.1333 22.6667 33.7749 22.6667 33.3333V32.2667C22.6667 31.8251 23.0251 31.4667 23.4667 31.4667H40.5333C40.9749 31.4667 41.3333 31.8251 41.3333 32.2667V33.3333C41.3333 33.7749 40.9749 34.1333 40.5333 34.1333Z" fill="#5526B3"/>
<path id="Vector_8" d="M32 33.0667C31.5584 33.0667 31.2 32.7083 31.2 32.2667V30.6667C31.2 30.2251 31.5584 29.8667 32 29.8667C32.4416 29.8667 32.8 30.2251 32.8 30.6667V32.2667C32.8 32.7083 32.4416 33.0667 32 33.0667Z" fill="#5526B3"/>
</g>
</g>
</g>
</g>
<defs>
<clipPath id="clip0_0_1">
<rect width="1440" height="4699" fill="white" transform="translate(-591 -2592)"/>
</clipPath>
<clipPath id="clip1_0_1">
<rect width="25.6" height="25.6" fill="white" transform="translate(19.2 19.2)"/>
</clipPath>
</defs>
</svg>
