<svg width="64" height="64" viewBox="0 0 64 64" fill="none" xmlns="http://www.w3.org/2000/svg">
<rect width="64" height="64" fill="#1E1E1E"/>
<g id="Landing Page" clip-path="url(#clip0_0_1)">
<rect width="1440" height="4699" transform="translate(-591 -2350)" fill="white"/>
<g id="Frame 31">
<g id="Frame 19">
<circle id="Ellipse 3" cx="32" cy="32" r="32" fill="#E8FAFA"/>
<g id="Contacts">
<path id="Vector" d="M36.1145 31.5427C37.1244 31.5427 37.9431 30.724 37.9431 29.7141C37.9431 28.7042 37.1244 27.8855 36.1145 27.8855C35.1046 27.8855 34.2859 28.7042 34.2859 29.7141C34.2859 30.724 35.1046 31.5427 36.1145 31.5427Z" fill="#23CEC9"/>
<path id="Vector_2" d="M44.8 20.5715C44.8 20.2078 44.6555 19.8589 44.3983 19.6017C44.1411 19.3445 43.7923 19.2 43.4286 19.2H27.4286V44.8H43.4286C43.7923 44.8 44.1411 44.6556 44.3983 44.3984C44.6555 44.1412 44.8 43.7923 44.8 43.4286V20.5715ZM36.1143 38.8572C34.7581 38.8572 33.4323 38.455 32.3047 37.7016C31.177 36.9481 30.2981 35.8771 29.7791 34.6242C29.2601 33.3712 29.1243 31.9924 29.3889 30.6623C29.6535 29.3321 30.3066 28.1103 31.2655 27.1513C32.2245 26.1923 33.4464 25.5392 34.7765 25.2747C36.1067 25.0101 37.4854 25.1459 38.7384 25.6649C39.9914 26.1839 41.0623 27.0628 41.8158 28.1904C42.5693 29.3181 42.9714 30.6438 42.9714 32C42.9694 33.818 42.2463 35.561 40.9607 36.8465C39.6752 38.132 37.9323 38.8551 36.1143 38.8572Z" fill="#23CEC9"/>
<path id="Vector_3" d="M36.1147 26.0574C34.9858 26.0562 33.88 26.3768 32.9268 26.9817C31.9735 27.5865 31.2125 28.4504 30.7327 29.4723C30.2529 30.4942 30.0744 31.6317 30.2179 32.7514C30.3615 33.8712 30.8213 34.9268 31.5433 35.7946V34.7431C31.5444 34.0012 31.803 33.2826 32.2749 32.71C32.7467 32.1375 33.4027 31.7464 34.1307 31.6035C33.7599 31.215 33.5113 30.7262 33.4157 30.1977C33.3201 29.6692 33.3817 29.1243 33.593 28.6305C33.8043 28.1368 34.1559 27.7159 34.6041 27.4201C35.0524 27.1244 35.5777 26.9667 36.1147 26.9667C36.6518 26.9667 37.177 27.1244 37.6253 27.4201C38.0736 27.7159 38.4252 28.1368 38.6364 28.6305C38.8477 29.1243 38.9094 29.6692 38.8138 30.1977C38.7182 30.7262 38.4696 31.215 38.0987 31.6035C38.8268 31.7464 39.4827 32.1375 39.9546 32.71C40.4265 33.2826 40.685 34.0012 40.6862 34.7431V35.7946C41.4082 34.9268 41.8679 33.8712 42.0115 32.7514C42.1551 31.6317 41.9765 30.4942 41.4968 29.4723C41.017 28.4504 40.2559 27.5865 39.3027 26.9817C38.3495 26.3768 37.2436 26.0562 36.1147 26.0574Z" fill="#23CEC9"/>
<path id="Vector_4" d="M37.4854 32.4568H34.7425C34.1366 32.4576 33.5556 32.6986 33.1271 33.1271C32.6986 33.5556 32.4576 34.1366 32.4568 34.7426V36.6744C33.4989 37.4958 34.7871 37.9425 36.114 37.9425C37.4408 37.9425 38.7291 37.4958 39.7711 36.6744V34.7426C39.7704 34.1366 39.5293 33.5556 39.1008 33.1271C38.6723 32.6986 38.0914 32.4576 37.4854 32.4568Z" fill="#23CEC9"/>
<path id="Vector_5" d="M23.7714 29.2569C23.7714 29.0144 23.6751 28.7818 23.5036 28.6104C23.3322 28.4389 23.0996 28.3426 22.8571 28.3426H20.1143C19.8718 28.3426 19.6392 28.4389 19.4678 28.6104C19.2963 28.7818 19.2 29.0144 19.2 29.2569C19.2 29.4993 19.2963 29.7319 19.4678 29.9034C19.6392 30.0748 19.8718 30.1712 20.1143 30.1712H22.8571C23.0996 30.1712 23.3322 30.0748 23.5036 29.9034C23.6751 29.7319 23.7714 29.4993 23.7714 29.2569Z" fill="#23CEC9"/>
<path id="Vector_6" d="M21.9432 20.5714V21.9429H22.8574C23.3424 21.9429 23.8075 22.1355 24.1504 22.4784C24.4934 22.8214 24.686 23.2865 24.686 23.7714C24.686 24.2564 24.4934 24.7215 24.1504 25.0644C23.8075 25.4073 23.3424 25.6 22.8574 25.6H21.9432V27.4286H22.8574C23.3424 27.4286 23.8075 27.6212 24.1504 27.9641C24.4934 28.3071 24.686 28.7722 24.686 29.2571C24.686 29.7421 24.4934 30.2072 24.1504 30.5501C23.8075 30.8931 23.3424 31.0857 22.8574 31.0857H21.9432V33.3714H22.8574C23.3424 33.3714 23.8075 33.5641 24.1504 33.907C24.4934 34.2499 24.686 34.715 24.686 35.2C24.686 35.685 24.4934 36.1501 24.1504 36.493C23.8075 36.8359 23.3424 37.0286 22.8574 37.0286H21.9432V38.8571H22.8574C23.3424 38.8571 23.8075 39.0498 24.1504 39.3927C24.4934 39.7356 24.686 40.2007 24.686 40.6857C24.686 41.1707 24.4934 41.6358 24.1504 41.9787C23.8075 42.3216 23.3424 42.5143 22.8574 42.5143H21.9432V43.4286C21.9432 43.7923 22.0877 44.1411 22.3448 44.3983C22.602 44.6555 22.9509 44.8 23.3146 44.8H26.5146V19.2H23.3146C22.9509 19.2 22.602 19.3445 22.3448 19.6017C22.0877 19.8589 21.9432 20.2077 21.9432 20.5714Z" fill="#23CEC9"/>
<path id="Vector_7" d="M20.1143 24.6858H22.8571C23.0996 24.6858 23.3322 24.5894 23.5036 24.418C23.6751 24.2465 23.7714 24.0139 23.7714 23.7715C23.7714 23.529 23.6751 23.2964 23.5036 23.125C23.3322 22.9535 23.0996 22.8572 22.8571 22.8572H20.1143C19.8718 22.8572 19.6392 22.9535 19.4678 23.125C19.2963 23.2964 19.2 23.529 19.2 23.7715C19.2 24.0139 19.2963 24.2465 19.4678 24.418C19.6392 24.5894 19.8718 24.6858 20.1143 24.6858Z" fill="#23CEC9"/>
<path id="Vector_8" d="M23.7714 35.2001C23.7714 34.9576 23.6751 34.725 23.5036 34.5536C23.3322 34.3821 23.0996 34.2858 22.8571 34.2858H20.1143C19.8718 34.2858 19.6392 34.3821 19.4678 34.5536C19.2963 34.725 19.2 34.9576 19.2 35.2001C19.2 35.4426 19.2963 35.6751 19.4678 35.8466C19.6392 36.018 19.8718 36.1144 20.1143 36.1144H22.8571C23.0996 36.1144 23.3322 36.018 23.5036 35.8466C23.6751 35.6751 23.7714 35.4426 23.7714 35.2001Z" fill="#23CEC9"/>
<path id="Vector_9" d="M23.7714 40.6857C23.7714 40.4432 23.6751 40.2107 23.5036 40.0392C23.3322 39.8678 23.0996 39.7714 22.8571 39.7714H20.1143C19.8718 39.7714 19.6392 39.8678 19.4678 40.0392C19.2963 40.2107 19.2 40.4432 19.2 40.6857C19.2 40.9282 19.2963 41.1608 19.4678 41.3322C19.6392 41.5037 19.8718 41.6 20.1143 41.6H22.8571C23.0996 41.6 23.3322 41.5037 23.5036 41.3322C23.6751 41.1608 23.7714 40.9282 23.7714 40.6857Z" fill="#23CEC9"/>
</g>
</g>
</g>
</g>
<defs>
<clipPath id="clip0_0_1">
<rect width="1440" height="4699" fill="white" transform="translate(-591 -2350)"/>
</clipPath>
</defs>
</svg>
