<svg width="64" height="64" viewBox="0 0 64 64" fill="none" xmlns="http://www.w3.org/2000/svg">
<rect width="64" height="64" fill="#1E1E1E"/>
<g id="Landing Page" clip-path="url(#clip0_0_1)">
<rect width="1440" height="4699" transform="translate(-953 -2350)" fill="white"/>
<g id="Frame 30">
<g id="Frame 20">
<circle id="Ellipse 4" cx="32" cy="32" r="32" fill="#F7EBF9"/>
<g id="graduate avatar laptop education">
<path id="Vector" d="M41.1431 32.5714C41.1431 32.4502 41.095 32.3339 41.0092 32.2482C40.9235 32.1624 40.8072 32.1143 40.686 32.1143H23.3146C23.1933 32.1143 23.077 32.1624 22.9913 32.2482C22.9056 32.3339 22.8574 32.4502 22.8574 32.5714V41.2571H41.1431V32.5714ZM32.0003 38.5143C31.5153 38.5143 31.0502 38.3216 30.7073 37.9787C30.3644 37.6358 30.1717 37.1707 30.1717 36.6857C30.1717 36.2007 30.3644 35.7356 30.7073 35.3927C31.0502 35.0498 31.5153 34.8571 32.0003 34.8571V35.7714C31.8195 35.7714 31.6427 35.825 31.4923 35.9255C31.342 36.0259 31.2248 36.1687 31.1556 36.3358C31.0864 36.5029 31.0683 36.6867 31.1036 36.8641C31.1388 37.0414 31.2259 37.2043 31.3538 37.3322C31.4816 37.4601 31.6446 37.5471 31.8219 37.5824C31.9993 37.6177 32.1831 37.5996 32.3502 37.5304C32.5172 37.4612 32.66 37.344 32.7605 37.1936C32.8609 37.0433 32.9146 36.8665 32.9146 36.6857H33.8289C33.8289 37.1707 33.6362 37.6358 33.2933 37.9787C32.9504 38.3216 32.4852 38.5143 32.0003 38.5143Z" fill="#B84DC5"/>
<path id="Vector_2" d="M32.1236 22.9536C32.0431 22.9779 31.9572 22.9779 31.8767 22.9536L28.1967 21.9021L27.9453 23.8861H36.055L35.8036 21.9021L32.1236 22.9536Z" fill="#B84DC5"/>
<path id="Vector_3" d="M21.111 43.0861C21.0578 42.9395 21.03 42.7849 21.0288 42.629V42.1718C21.0295 41.9296 21.126 41.6974 21.2974 41.5261C21.4687 41.3548 21.7008 41.2583 21.943 41.2575V39.9318C21.6093 40.0001 21.2951 40.142 21.0233 40.3474C20.7515 40.5527 20.5291 40.8161 20.3722 41.1185C20.2153 41.4208 20.128 41.7544 20.1166 42.0949C20.1053 42.4353 20.1701 42.774 20.3065 43.0861H21.111Z" fill="#B84DC5"/>
<path id="Vector_4" d="M19.2002 44H44.8002V44.9143H19.2002V44Z" fill="#B84DC5"/>
<path id="Vector_5" d="M42.9719 42.1716V42.6288C42.9707 42.7847 42.9428 42.9393 42.8896 43.0859H43.6942C43.8194 42.7973 43.8847 42.4863 43.8862 42.1716C43.8848 41.6451 43.7024 41.1351 43.3694 40.7272C43.0364 40.3193 42.5732 40.0384 42.0576 39.9316V41.2574C42.2999 41.2581 42.532 41.3546 42.7033 41.5259C42.8746 41.6972 42.9712 41.9294 42.9719 42.1716Z" fill="#B84DC5"/>
<path id="Vector_6" d="M42.9719 36.2293C42.9711 35.9458 42.8829 35.6694 42.7193 35.4379C42.5557 35.2063 42.3246 35.0309 42.0576 34.9355V39.0087C42.3743 39.0541 42.6825 39.1465 42.9719 39.283V36.2293Z" fill="#B84DC5"/>
<path id="Vector_7" d="M21.9426 34.9355C21.6756 35.0309 21.4446 35.2063 21.2809 35.4379C21.1173 35.6694 21.0291 35.9458 21.0283 36.2293V39.283C21.3177 39.1465 21.6259 39.0541 21.9426 39.0087V34.9355Z" fill="#B84DC5"/>
<path id="Vector_8" d="M21.9434 42.629C21.9434 42.7503 21.9915 42.8665 22.0773 42.9523C22.163 43.038 22.2793 43.0862 22.4005 43.0862H41.6005C41.7217 43.0862 41.838 43.038 41.9237 42.9523C42.0095 42.8665 42.0576 42.7503 42.0576 42.629V42.1719H21.9434V42.629Z" fill="#B84DC5"/>
<path id="Vector_9" d="M29.4265 31.2008H34.5694C34.6894 31.112 34.8025 31.0142 34.9077 30.9082C35.291 30.5274 35.5951 30.0744 35.8022 29.5753C36.0094 29.0763 36.1155 28.5411 36.1145 28.0008V27.0865C36.357 27.0865 36.5896 26.9902 36.761 26.8187C36.9325 26.6472 37.0288 26.4147 37.0288 26.1722C37.0288 25.9297 36.9325 25.6972 36.761 25.5257C36.5896 25.3543 36.357 25.2579 36.1145 25.2579V24.8008H27.886V25.2579C27.6435 25.2579 27.4109 25.3543 27.2395 25.5257C27.068 25.6972 26.9717 25.9297 26.9717 26.1722C26.9717 26.4147 27.068 26.6472 27.2395 26.8187C27.4109 26.9902 27.6435 27.0865 27.886 27.0865V28.0008C27.8887 28.6151 28.0284 29.2212 28.2949 29.7747C28.5614 30.3283 28.948 30.8155 29.4265 31.2008ZM33.3717 26.6294C33.3717 26.5081 33.4198 26.3918 33.5056 26.3061C33.5913 26.2204 33.7076 26.1722 33.8288 26.1722C33.9501 26.1722 34.0663 26.2204 34.1521 26.3061C34.2378 26.3918 34.286 26.5081 34.286 26.6294V27.5436C34.286 27.6649 34.2378 27.7812 34.1521 27.8669C34.0663 27.9526 33.9501 28.0008 33.8288 28.0008C33.7076 28.0008 33.5913 27.9526 33.5056 27.8669C33.4198 27.7812 33.3717 27.6649 33.3717 27.5436V26.6294ZM29.7145 26.6294C29.7145 26.5081 29.7627 26.3918 29.8484 26.3061C29.9342 26.2204 30.0504 26.1722 30.1717 26.1722C30.2929 26.1722 30.4092 26.2204 30.4949 26.3061C30.5807 26.3918 30.6288 26.5081 30.6288 26.6294V27.5436C30.6288 27.6649 30.5807 27.7812 30.4949 27.8669C30.4092 27.9526 30.2929 28.0008 30.1717 28.0008C30.0504 28.0008 29.9342 27.9526 29.8484 27.8669C29.7627 27.7812 29.7145 27.6649 29.7145 27.5436V26.6294ZM30.6288 29.3722C30.6288 29.486 31.1152 29.8294 32.0003 29.8294C32.8853 29.8294 33.3717 29.486 33.3717 29.3722H34.286C34.286 30.1539 33.3036 30.7436 32.0003 30.7436C30.6969 30.7436 29.7145 30.1539 29.7145 29.3722H30.6288Z" fill="#B84DC5"/>
<path id="Vector_10" d="M36.5716 20.9147V24.3432H37.4859V20.6861L32.0002 18.4004L26.5145 20.6861L32.0002 22.0575L36.5716 20.9147Z" fill="#B84DC5"/>
</g>
</g>
</g>
</g>
<defs>
<clipPath id="clip0_0_1">
<rect width="1440" height="4699" fill="white" transform="translate(-953 -2350)"/>
</clipPath>
</defs>
</svg>
