<svg width="64" height="64" viewBox="0 0 64 64" fill="none" xmlns="http://www.w3.org/2000/svg">
<rect width="64" height="64" fill="#1E1E1E"/>
<g id="Landing Page" clip-path="url(#clip0_0_1)">
<rect width="1440" height="4699" transform="translate(-953 -2592)" fill="white"/>
<g id="Frame 29">
<g id="Frame 24">
<circle id="Ellipse 4" cx="32" cy="32" r="32" fill="#FEF5EC"/>
<g id="Group">
<path id="Vector" d="M40.6035 40.6037C40.6035 39.6767 41.3552 38.9251 42.2822 38.9251H44.8002L44.7981 38.0857C44.0331 37.0668 42.8156 36.407 41.4429 36.407C40.1482 36.407 38.9928 36.9946 38.224 37.9166C37.9097 38.2935 37.4409 38.5054 36.9503 38.5054H21.7183C20.5596 38.5054 19.6199 39.445 19.6199 40.6037C19.6199 41.7625 20.5596 42.7021 21.7183 42.7021H36.9503C37.4409 42.7021 37.9097 42.914 38.224 43.2909C38.9928 44.2129 40.1482 44.8005 41.4429 44.8005C42.8156 44.8005 44.0331 44.1407 44.7981 43.1218L44.8002 42.2824H42.2822C41.3552 42.2824 40.6035 41.5308 40.6035 40.6037Z" fill="#F4A45D"/>
<path id="Vector_2" d="M40.6033 35.6448V33.8885H28.8524V37.6656H36.95C37.1972 37.6656 37.4268 37.5606 37.5791 37.3781C37.7671 37.1527 37.9765 36.9521 38.1964 36.7658C37.8859 36.6428 37.6656 36.3411 37.6656 35.9869C37.6656 35.5231 38.0412 35.1475 38.5049 35.1475C38.9686 35.1475 39.3442 35.5231 39.3442 35.9869C39.3442 36.0016 39.3409 36.015 39.3401 36.0293C39.74 35.845 40.1651 35.7191 40.6033 35.6448ZM30.5311 37.2459H29.6918V36.4066H30.5311V37.2459ZM30.5311 35.5672H29.6918V34.7279H30.5311V35.5672ZM35.1475 36.8262C34.6838 36.8262 34.3082 36.4506 34.3082 35.9869C34.3082 35.5231 34.6838 35.1475 35.1475 35.1475C35.6113 35.1475 35.9869 35.5231 35.9869 35.9869C35.9869 36.4506 35.6113 36.8262 35.1475 36.8262Z" fill="#F4A45D"/>
<path id="Vector_3" d="M21.0977 26.9001C21.1728 27.1351 21.2719 27.3726 21.3931 27.6077L21.4997 27.8141L20.9768 28.6933L22.2959 30.0124L23.1755 29.4895L23.3824 29.5969C23.6166 29.7178 23.8541 29.8172 24.0887 29.8923L24.3103 29.9629L24.5617 30.9503H26.4271L26.6785 29.9624L26.9001 29.8919C27.1347 29.8168 27.3722 29.7173 27.6064 29.5965L27.8133 29.489L28.5246 29.9121H28.7928L30.012 28.6933L29.489 27.8141L29.5956 27.6077C29.7169 27.3726 29.816 27.1351 29.8911 26.9001L29.962 26.6785L30.9503 26.4275V24.5621L29.9624 24.3111L29.8915 24.0895C29.8164 23.8545 29.7173 23.617 29.5961 23.382L29.4895 23.1755L30.0124 22.2963L28.6933 20.9773L27.8137 21.5002L27.6068 21.3927C27.3726 21.2719 27.1351 21.1724 26.9005 21.0973L26.6789 21.0268L26.4275 20.0389H24.5621L24.3107 21.0268L24.0887 21.0973C23.8541 21.1724 23.6166 21.2719 23.3824 21.3927L23.1755 21.5002L22.2963 20.9773L20.9773 22.2963L21.5002 23.1755L21.3936 23.382C21.2723 23.617 21.1732 23.8545 21.0981 24.0895L21.0268 24.3111L20.0389 24.5617V26.4271L21.0268 26.6781L21.0977 26.9001ZM25.4946 22.1372C27.3487 22.1372 28.852 23.6405 28.852 25.4946C28.852 27.3487 27.3487 28.852 25.4946 28.852C23.6405 28.852 22.1372 27.3487 22.1372 25.4946C22.1372 23.6405 23.6405 22.1372 25.4946 22.1372Z" fill="#F4A45D"/>
<path id="Vector_4" d="M40.6032 28.8523H31.0401L28.8524 31.0401V33.0491H40.6032V28.8523ZM30.9507 31.79C30.487 31.79 30.1114 31.4144 30.1114 30.9507C30.1114 30.487 30.487 30.1114 30.9507 30.1114C31.4145 30.1114 31.7901 30.487 31.7901 30.9507C31.7901 31.4144 31.4145 31.79 30.9507 31.79ZM34.3081 31.79C33.8444 31.79 33.4687 31.4144 33.4687 30.9507C33.4687 30.487 33.8444 30.1114 34.3081 30.1114C34.7718 30.1114 35.1474 30.487 35.1474 30.9507C35.1474 31.4144 34.7718 31.79 34.3081 31.79ZM39.7638 32.2097H38.9245V31.3704H39.7638V32.2097ZM39.7638 30.531H38.9245V29.6917H39.7638V30.531Z" fill="#F4A45D"/>
<path id="Vector_5" d="M31.7899 27.08L30.614 27.3792C30.564 27.5127 30.5082 27.6474 30.4461 27.7804L30.5842 28.0129H40.603V24.2359C40.603 24.0042 40.4146 23.8162 40.1833 23.8162H31.4227L31.7899 23.9098V27.08ZM38.5046 25.0752C38.9684 25.0752 39.344 25.4508 39.344 25.9146C39.344 26.3783 38.9684 26.7539 38.5046 26.7539C38.0409 26.7539 37.6653 26.3783 37.6653 25.9146C37.6653 25.4508 38.0409 25.0752 38.5046 25.0752ZM35.1473 25.0752C35.611 25.0752 35.9866 25.4508 35.9866 25.9146C35.9866 26.3783 35.611 26.7539 35.1473 26.7539C34.6835 26.7539 34.3079 26.3783 34.3079 25.9146C34.3079 25.4508 34.6835 25.0752 35.1473 25.0752Z" fill="#F4A45D"/>
<path id="Vector_6" d="M25.4949 27.1736C26.422 27.1736 27.1736 26.422 27.1736 25.4949C27.1736 24.5678 26.422 23.8162 25.4949 23.8162C24.5678 23.8162 23.8162 24.5678 23.8162 25.4949C23.8162 26.422 24.5678 27.1736 25.4949 27.1736Z" fill="#F4A45D"/>
<path id="Vector_7" d="M22.5576 34.7283C21.8635 34.7283 21.2986 35.2932 21.2986 35.9873C21.2986 36.6815 21.8635 37.2464 22.5576 37.2464C23.1041 37.2464 23.5657 36.8942 23.7394 36.407H28.0134V35.5677H23.7394C23.5657 35.0804 23.1041 34.7283 22.5576 34.7283Z" fill="#F4A45D"/>
<path id="Vector_8" d="M21.6408 33.4685H28.0131V32.6292H21.6408C21.4671 32.1419 21.0054 31.7898 20.459 31.7898C19.7649 31.7898 19.2 32.3547 19.2 33.0489C19.2 33.743 19.7649 34.3079 20.459 34.3079C21.0054 34.3079 21.4671 33.9558 21.6408 33.4685Z" fill="#F4A45D"/>
<path id="Vector_9" d="M38.5052 21.6408V22.977H39.3445V21.6408C39.8318 21.4671 40.1839 21.0054 40.1839 20.459C40.1839 19.7649 39.619 19.2 38.9248 19.2C38.2307 19.2 37.6658 19.7649 37.6658 20.459C37.6658 21.0054 38.0179 21.4671 38.5052 21.6408Z" fill="#F4A45D"/>
<path id="Vector_10" d="M34.3079 21.6408V22.977H35.1473V21.6408C35.6345 21.4671 35.9866 21.0054 35.9866 20.459C35.9866 19.7649 35.4217 19.2 34.7276 19.2C34.0334 19.2 33.4686 19.7649 33.4686 20.459C33.4686 21.0054 33.8207 21.4671 34.3079 21.6408Z" fill="#F4A45D"/>
</g>
</g>
</g>
</g>
<defs>
<clipPath id="clip0_0_1">
<rect width="1440" height="4699" fill="white" transform="translate(-953 -2592)"/>
</clipPath>
</defs>
</svg>
