<svg width="16" height="13" viewBox="0 0 16 13" fill="none" xmlns="http://www.w3.org/2000/svg">
<rect width="16" height="13" fill="#1E1E1E"/>
<g id="Landing Page" clip-path="url(#clip0_0_1)">
<rect width="1440" height="4699" transform="translate(-1180 -4653)" fill="white"/>
<rect id="Rectangle 34" x="-1213" y="-371" width="1505" height="417" fill="#1D2830"/>
<g id="Frame 54">
<g id="Frame 53">
<g id="Frame 29">
<path id="BG" opacity="0.1" fill-rule="evenodd" clip-rule="evenodd" d="M-8 6C-8 -2.83656 -0.836555 -10 8 -10C16.8366 -10 24 -2.83656 24 6C24 14.8366 16.8366 22 8 22C-0.836555 22 -8 14.8366 -8 6Z" fill="white"/>
<path id="Path" fill-rule="evenodd" clip-rule="evenodd" d="M7.5208 3.405L7.55438 3.95864L6.99479 3.89084C4.95791 3.63097 3.17843 2.74968 1.66756 1.26955L0.928908 0.535132L0.73865 1.07747C0.33575 2.28643 0.593158 3.56318 1.43253 4.42188C1.8802 4.89643 1.77948 4.96422 1.00725 4.68175C0.73865 4.59136 0.503625 4.52357 0.481242 4.55747C0.4029 4.63656 0.6715 5.66474 0.884142 6.07149C1.17513 6.63643 1.76828 7.19006 2.4174 7.51773L2.96579 7.7776L2.31668 7.7889C1.68994 7.7889 1.66756 7.80019 1.73471 8.03747C1.95854 8.77188 2.84268 9.55149 3.82755 9.89045L4.52143 10.1277L3.91708 10.4893C3.02175 11.009 1.96973 11.3028 0.917717 11.3254C0.414092 11.3367 0 11.3819 0 11.4158C0 11.5288 1.36538 12.1615 2.15999 12.4101C4.54382 13.1445 7.37531 12.8281 9.50173 11.574C11.0126 10.6814 12.5235 8.90747 13.2286 7.19006C13.6091 6.27487 13.9896 4.60266 13.9896 3.80045C13.9896 3.28071 14.0232 3.21292 14.6499 2.59149C15.0192 2.22994 15.3662 1.83448 15.4333 1.72149C15.5452 1.50682 15.534 1.50682 14.9633 1.6989C14.012 2.03786 13.8777 1.99266 14.3477 1.48422C14.6947 1.12266 15.1088 0.46734 15.1088 0.275262C15.1088 0.241366 14.9409 0.297859 14.7506 0.399547C14.5492 0.512534 14.1015 0.682015 13.7658 0.783703L13.1614 0.975781L12.613 0.602924C12.3108 0.399547 11.8856 0.173573 11.6617 0.105781C11.0909 -0.0524005 10.218 -0.0298031 9.70318 0.150976C8.30422 0.659417 7.42008 1.97007 7.5208 3.405Z" fill="white"/>
</g>
</g>
</g>
</g>
<defs>
<clipPath id="clip0_0_1">
<rect width="1440" height="4699" fill="white" transform="translate(-1180 -4653)"/>
</clipPath>
</defs>
</svg>
